PathFileType	4	(X/Y/Z)	/Users/visionmauri/1_7_1_f_Sports2D/1_7_1_f_Sports2D_m_person00.trc
DataRate	CameraRate	NumFrames	NumMarkers	Units	OrigDataRate	OrigDataStartFrame	OrigNumFrames
30.0	30.0	8	22	m	30.0	0	389
Frame#	Time	Hip			RHip			RKnee			RAnkle			RBigToe			RSmallToe			RHeel			LHip			LKnee			LAnkle			LBigToe			LSmallToe			LHeel			Neck			Head			Nose			RShoulder			RElbow			RWrist			LShoulder			LElbow			LWrist			
		X1	Y1	Z1	X2	Y2	Z2	X3	Y3	Z3	X4	Y4	Z4	X5	Y5	Z5	X6	Y6	Z6	X7	Y7	Z7	X8	Y8	Z8	X9	Y9	Z9	X10	Y10	Z10	X11	Y11	Z11	X12	Y12	Z12	X13	Y13	Z13	X14	Y14	Z14	X15	Y15	Z15	X16	Y16	Z16	X17	Y17	Z17	X18	Y18	Z18	X19	Y19	Z19	X20	Y20	Z20	X21	Y21	Z21	X22	Y22	Z22
0	0.0	1.9826678187932916	0.522243008868616	0.0301	2.046523171308715	0.36852149807828116	0.0301	1.644576315518901	-0.025802300885074875	0.129	1.1718691466086626	-0.29913772165021113	0.023	1.0966078768529701	-0.5349937642653859	0.2179	1.1123951363385753	-0.5598830867502532	0.1804	1.0727580679903668	-0.3132096751686225	-0.0119	1.849839650494117	0.5933704684289043	0.0301	1.507756498274079	0.2690704762736618	0.129	1.4706032776896765	0.2067859582884397	0.023	1.2120489276342268	-0.03134959170164809	0.2179	1.1976774039461282	0.04117508629395635	0.1804	1.4905150384363905	0.23490680511066223	-0.0119	2.5003864785720054	1.0550893603142317	0.0008	2.5875219529793485	1.1834726419234285	0.0655	2.502371576734678	1.1245014464212895	0.1076	2.637729194969121	0.8224347650918791	-0.01275	2.4701458303207353	0.44136086710397016	0.0702	2.274021625867535	0.2254850480020371	0.1076	2.3089680844143112	1.1701323563561208	-0.01275	1.9321305956793091	0.9857507073009332	0.0702	1.9004659506499384	0.9456068236581825	0.1076
1	0.033419243986254295	1.985007601549528	0.5242601985145091	0.0301	2.049367574014248	0.37224372742183304	0.0301	1.6554681029849068	-0.01935621171503523	0.129	1.1825636142485254	-0.29575441544036896	0.023	1.0980663144816147	-0.5327525594719249	0.2179	1.1192473617618106	-0.5562389970434823	0.1804	1.086270532887848	-0.3088296682385578	-0.0119	1.8502242955186488	0.5930305015364888	0.0301	1.5101371334030458	0.27369988726887445	0.129	1.4979262067197892	0.23920124652466526	0.023	1.2109524924458748	-0.023688403086139745	0.2179	1.2722870751619622	0.11436408581567135	0.1804	1.4750417776856413	0.22493819641399326	-0.0119	2.497802111291452	1.0551149892146534	0.0008	2.5854150259513666	1.1829856758491248	0.0655	2.496189690493291	1.1256508288005458	0.1076	2.6390248848323377	0.8271370268163772	-0.01275	2.469206157345674	0.43975813592882074	0.0702	2.2744923541684745	0.229094314613814	0.1076	2.3066270252290844	1.1716690601536643	-0.01275	1.92912776027169	0.9870084504835844	0.0702	1.8932562561870805	0.9428162027942018	0.1076
2	0.06683848797250859	1.987965419381492	0.5265028926067022	0.0301	2.0526444594377216	0.3767473986148989	0.0301	1.6702190816808133	-0.008949105121638505	0.129	1.2020257669079322	-0.29213005321946967	0.023	1.1099530299716378	-0.5186575377447722	0.2179	1.1375153990856406	-0.543330925078764	0.1804	1.10721250985772	-0.3070687906682354	-0.0119	1.84834913827881	0.5917878082138985	0.0301	1.5095080204990856	0.2749678185206994	0.129	1.4786786477971434	0.22179959102254068	0.023	1.1755069807395508	-0.06130481803978472	0.2179	1.2528679565006067	0.09151174579664052	0.1804	1.3532201241054833	0.1077655168533023	-0.0119	2.493446007562406	1.056025655223495	0.0008	2.579698799128063	1.1843054057715685	0.0655	2.484298663752657	1.1274634446722676	0.1076	2.6393381917852143	0.8315313230414093	-0.01275	2.4680308198066867	0.4397655792530943	0.0702	2.275338567358451	0.23449854795031289	0.1076	2.3023955051536626	1.1749231655604153	-0.01275	1.926934367851445	0.9889732022175038	0.0702	1.889740208396494	0.943685719754704	0.1076
3	0.10025773195876289	1.9900767012907985	0.527756576773648	0.0301	2.0553288892315815	0.3807305414099942	0.0301	1.6825283339492367	0.0038159534093736135	0.129	1.2259272003419948	-0.2897978263845603	0.023	1.1348848039182486	-0.4886268300706672	0.2179	1.1669487568644572	-0.5181342768373496	0.1804	1.1320779520915611	-0.31194360988718467	-0.0119	1.8456035685394625	0.5899468586004776	0.0301	1.5038370060198563	0.26882545029127913	0.129	1.3743274841403859	0.11788298461262307	0.023	1.1139647686376348	-0.14203299234406502	0.2179	1.1335890607704018	-0.03517833931989488	0.1804	1.1630558739316545	-0.08083843492468504	-0.0119	2.486800788134593	1.0577465994241213	0.0008	2.570009588257744	1.1878146809146937	0.0655	2.4679492338952804	1.1283703695373162	0.1076	2.63678106604624	0.8351166861123999	-0.01275	2.4677835096541103	0.44373721075136713	0.0702	2.276820623388041	0.24086182013221571	0.1076	2.2960625847100506	1.1792845494826247	-0.01275	1.9267530526625054	0.9902772134899824	0.0702	1.8923395884251946	0.9485546315169837	0.1076
4	0.13367697594501718	1.988592247638043	0.5264657701279798	0.0301	2.0532046315199386	0.3803839871321478	0.0301	1.6868481886722604	0.016018249811369036	0.129	1.244015162722612	-0.2905972571000238	0.023	1.1668897655302868	-0.4459641299206224	0.2179	1.1996741158827462	-0.48358824621313035	0.1804	1.152980086217442	-0.32445171422853053	-0.0119	1.8443398725789106	0.5876044124489391	0.0301	1.495235858383444	0.25631524058532684	0.129	1.2269656411484884	-0.02731746896146306	0.023	1.0648488137625276	-0.22122131762737926	0.2179	1.016401735571858	-0.1640899514384293	0.1804	1.0354725254395822	-0.2079102654619641	-0.0119	2.480751857962064	1.0622676536758437	0.0008	2.559093177270375	1.1907524824662197	0.0655	2.448871878399637	1.1272414524064782	0.1076	2.6312221754091323	0.8386467627849099	-0.01275	2.4693764097691204	0.4519204523362325	0.0702	2.278335881579421	0.24622788496470496	0.1076	2.2878684022430327	1.18155696168358	-0.01275	1.9247976924083694	0.987209282352304	0.0702	1.89703324953198	0.9532730529067449	0.1076
5	0.16709621993127147	1.9843925397546403	0.5242974170149837	0.0301	2.045606334052473	0.3755494481312751	0.0301	1.6875356748898829	0.028142566238737128	0.129	1.2530410261550535	-0.29457949267290734	0.023	1.1966083143027082	-0.3980691720768896	0.2179	1.2292142412758376	-0.44633799537586	0.1804	1.1666383685625026	-0.3404277501448218	-0.0119	1.8450413425525303	0.5858771226429677	0.0301	1.4893816645530225	0.24507908897347905	0.129	1.1332233213462384	-0.11871536902594779	0.023	1.0443536579758237	-0.26816959447900973	0.2179	0.9725325276440561	-0.218827663333754	0.1804	1.014352602499775	-0.22494653342518847	-0.0119	2.478277823925399	1.0701916179925726	0.0008	2.5493789232046935	1.1915597675156395	0.0655	2.428477152093996	1.1260976992895315	0.1076	2.6251994554305376	0.8418245732543816	-0.01275	2.4716739251874085	0.4611470296215549	0.0702	2.278380768661934	0.24901985210842995	0.1076	2.2791514865826916	1.1797785923410342	-0.01275	1.9165620331483544	0.9785170892174816	0.0702	1.8979801656150745	0.9537747956442304	0.1076
6	0.20051546391752578	1.9840465566894774	0.5255072108151406	0.0301	2.0432499281315786	0.37447344970956126	0.0301	1.6892782290467445	0.04077212225619306	0.129	1.2575593049062674	-0.29888209215439937	0.023	1.2163461979573664	-0.35360508282793085	0.2179	1.2516539083029656	-0.41388820619737954	0.1804	1.1751658670054583	-0.3537141186678519	-0.0119	1.849447037834165	0.5884880375147273	0.0301	1.4898324577569433	0.24059346624155165	0.129	1.114824587086381	-0.13577331496348516	0.023	1.0403627781779075	-0.284707706131507	0.2179	0.9733869947084032	-0.21974287971261108	0.1804	1.0323760340596932	-0.20098322521548354	-0.0119	2.4755643190343966	1.0739957249626932	0.0008	2.539689335062687	1.194710483821151	0.0655	2.4124251432839667	1.1271810908131827	0.1076	2.6202696677226207	0.8424089976980457	-0.01275	2.4728913414017457	0.46767421582673907	0.0702	2.276659390305085	0.24850798083668096	0.1076	2.273003754019117	1.176611987147273	-0.01275	1.9069476330586748	0.9696222047983163	0.0702	1.8943885594667023	0.9500534659590943	0.1076
7	0.23393470790378007	1.9909904859626535	0.5296787391078838	0.0301	2.0539030962660685	0.38196436577316456	0.0301	1.6897614199937145	0.05126594572200013	0.129	1.262659545460546	-0.29895202795241704	0.023	1.2243109172085598	-0.3160079733810595	0.2179	1.2645019480923043	-0.38844638130213244	0.1804	1.1828699771125635	-0.3591327372059118	-0.0119	1.8586772674701182	0.5949993947415378	0.0301	1.4976368666824078	0.24371602065855422	0.129	1.1158475948125572	-0.1321754301978442	0.023	1.0470787154970878	-0.2783370177265	0.2179	0.979411377130194	-0.20627140994526108	0.1804	1.0326139008772277	-0.20012499553100302	-0.0119	2.4676906415855338	1.066922488244308	0.0008	2.527394686802077	1.204036013667791	0.0655	2.4041413083216265	1.1296892001093648	0.1076	2.616192718446843	0.8397885128669487	-0.01275	2.4722336034773615	0.4700849366713391	0.0702	2.2746964005775263	0.24547245706848264	0.1076	2.270047401890589	1.1750672280615533	-0.01275	1.9031493346739687	0.9658927158816656	0.0702	1.8896885498183131	0.9446784884332946	0.1076
